<?xml version="1.0" encoding="UTF-8" standalone="no"?>
<!DOCTYPE svg PUBLIC "-//W3C//DTD SVG 1.1//EN" "http://www.w3.org/Graphics/SVG/1.1/DTD/svg11.dtd">
<svg version="1.1" xmlns="http://www.w3.org/2000/svg" xmlns:xlink="http://www.w3.org/1999/xlink" preserveAspectRatio="xMidYMid meet" viewBox="0 0 640 640" width="640" height="640"><defs><path d="M477.58 147.94C495.32 147.94 504.19 156.81 504.19 174.54C504.19 309.86 504.19 385.04 504.19 400.07C504.19 417.81 495.32 426.68 477.58 426.68C342.26 426.68 267.08 426.68 252.05 426.68C234.31 426.68 225.44 417.81 225.44 400.07C225.44 264.76 225.44 189.58 225.44 174.54C225.44 156.81 234.31 147.94 252.05 147.94C387.37 147.94 462.55 147.94 477.58 147.94Z" id="b65Yn8q5oG"></path><path d="M252.73 370.44C132.69 314.96 157.41 181.47 258.8 147.77C266.56 145.19 274.25 143.63 281.81 142.95C328.05 138.8 369.17 167.65 385.81 199.78C388.96 205.86 404.72 236.3 433.1 291.08C412.27 293.87 400.7 295.41 398.39 295.72C420.55 321.17 423.99 318.85 390.97 334.04C393.8 336.01 416.39 351.77 419.21 353.74C420.85 360.81 414.23 365.43 400.59 367.96C415.85 402.43 412.95 419.96 359.86 414.94C358.88 423.43 362.93 449.3 369.94 465.21C361.74 465.25 320.71 465.49 246.86 465.91C252.28 427.55 254.23 395.73 252.73 370.44Z" id="c2adpmXs1V"></path><path d="M438 361.51C452.85 347.72 453.71 324.51 439.92 309.66C441.03 308.62 449.95 300.34 451.07 299.31C470.57 320.31 469.36 353.15 448.35 372.66C446.28 370.43 439.03 362.63 438 361.51Z" id="eaB79Gt6n"></path><path d="M458.94 292C460.08 290.94 469.26 282.41 470.41 281.35C499.84 313.03 498 362.58 466.31 392C465.6 391.24 462.05 387.41 455.66 380.53C473.54 338.41 474.63 308.9 458.94 292Z" id="aZy2luH1R"></path><path d="M480.12 274.15C481.27 273.09 490.45 264.56 491.6 263.5C520.58 296.39 538.86 363.29 483.85 411.02C483.14 410.25 479.59 406.43 473.2 399.54C506.35 352.22 508.66 310.42 480.12 274.15Z" id="dXRSyDejU"></path><path d="M583.25 314.82C582.83 453.4 467.43 565.56 325.72 565.13C184.01 564.7 69.3 451.83 69.73 313.25C70.15 174.67 185.55 62.51 327.26 62.94C468.97 63.38 583.68 176.24 583.25 314.82Z" id="b7KaLs8OSm"></path><path d="M176.64 104.36L531.43 459.15L488.54 502.03L133.75 147.25L176.64 104.36Z" id="c1nsQWhKm3"></path></defs><g><g><g><use xlink:href="#b65Yn8q5oG" opacity="1" fill="#ffffff" fill-opacity="1"></use><g><use xlink:href="#b65Yn8q5oG" opacity="1" fill-opacity="0" stroke="#000000" stroke-width="1" stroke-opacity="0"></use></g></g><g><use xlink:href="#c2adpmXs1V" opacity="1" fill="#000000" fill-opacity="1"></use><g><use xlink:href="#c2adpmXs1V" opacity="1" fill-opacity="0" stroke="#000000" stroke-width="1" stroke-opacity="0"></use></g></g><g><use xlink:href="#eaB79Gt6n" opacity="1" fill="#000000" fill-opacity="1"></use><g><use xlink:href="#eaB79Gt6n" opacity="1" fill-opacity="0" stroke="#000000" stroke-width="1" stroke-opacity="0"></use></g></g><g><use xlink:href="#aZy2luH1R" opacity="1" fill="#000000" fill-opacity="1"></use><g><use xlink:href="#aZy2luH1R" opacity="1" fill-opacity="0" stroke="#000000" stroke-width="1" stroke-opacity="0"></use></g></g><g><use xlink:href="#dXRSyDejU" opacity="1" fill="#000000" fill-opacity="1"></use><g><use xlink:href="#dXRSyDejU" opacity="1" fill-opacity="0" stroke="#000000" stroke-width="1" stroke-opacity="0"></use></g></g><g><g><use xlink:href="#b7KaLs8OSm" opacity="1" fill-opacity="0" stroke="#000000" stroke-width="40" stroke-opacity="1"></use></g></g><g><use xlink:href="#c1nsQWhKm3" opacity="1" fill="#000000" fill-opacity="1"></use></g></g></g></svg>